<?xml version="1.0" encoding="utf-8"?>
<!-- Generator: Adobe Illustrator 28.0.0, SVG Export Plug-In . SVG Version: 6.00 Build 0)  -->
<svg version="1.1" id="Layer_1" xmlns="http://www.w3.org/2000/svg" xmlns:xlink="http://www.w3.org/1999/xlink" x="0px" y="0px"
	 width="40px" height="39px" viewBox="0 0 40 39" style="enable-background:new 0 0 40 39;" xml:space="preserve">
<style type="text/css">
	.st0{fill:#FA0F00;}
	.st1{fill:#FFFFFF;}
</style>
<path class="st0" d="M7.1,0h25.8C36.8,0,40,3.2,40,7.1v24.8c0,3.9-3.2,7.1-7.1,7.1H7.1C3.2,39,0,35.8,0,31.9V7.1C0,3.2,3.2,0,7.1,0z
	"/>
<path id="_256" class="st1" d="M31.1,29.3h-4.7c-0.4,0-0.8-0.2-1-0.6l-5.1-12c0-0.1-0.2-0.2-0.3-0.2c-0.1,0-0.1,0.1-0.2,0.1
	l-3.2,7.6c-0.1,0.1,0,0.3,0.1,0.4h0.1h3.5c0.2,0,0.4,0.1,0.5,0.3l1.5,3.4c0.1,0.3,0,0.7-0.3,0.8c-0.1,0-0.2,0.1-0.2,0.1H9
	c-0.3,0-0.6-0.3-0.6-0.6c0-0.1,0-0.2,0-0.2L16.6,9c0.2-0.4,0.6-0.7,1-0.7h4.7c0.5,0,0.9,0.3,1,0.7l8.2,19.5c0.1,0.3,0,0.6-0.3,0.8
	C31.2,29.3,31.2,29.3,31.1,29.3z"/>
</svg>
